<?xml version="1.0" encoding="iso-8859-1"?>
<!-- Generator: Adobe Illustrator 18.0.0, SVG Export Plug-In . SVG Version: 6.00 Build 0)  -->
<!DOCTYPE svg PUBLIC "-//W3C//DTD SVG 1.1//EN" "http://www.w3.org/Graphics/SVG/1.1/DTD/svg11.dtd">
<svg version="1.1" id="Capa_1" xmlns="http://www.w3.org/2000/svg" xmlns:xlink="http://www.w3.org/1999/xlink" x="0px" y="0px"
	 viewBox="0 0 414.004 414.004" style="enable-background:new 0 0 414.004 414.004;" xml:space="preserve">
<path id="XMLID_1377_" d="M310.751,1.071c-4.426-2.231-9.813-0.883-12.669,3.163c-0.625,0.884-50.816,71.157-109.758,98.784
	c1.566-4.651,2.427-9.623,2.427-14.795c0-25.64-20.859-46.5-46.5-46.5s-46.5,20.86-46.5,46.5c0,30.076,27.921,51.512,57.76,46.114
	c48.303-8.738,94.898-45.873,124.781-77.573L166.755,400.868c-1.73,5.245,1.118,10.899,6.362,12.63
	c1.041,0.343,2.097,0.506,3.136,0.506c4.197,0,8.107-2.665,9.494-6.87l130-394C317.3,8.431,315.174,3.3,310.751,1.071z
	 M117.751,88.223c0-14.612,11.888-26.5,26.5-26.5s26.5,11.888,26.5,26.5c0,11.989-8.005,22.138-18.949,25.398
	c-4.301,0.812-5.884,1.548-11.457,0.812C127.579,112.538,117.751,101.508,117.751,88.223z"/>
<g>
</g>
<g>
</g>
<g>
</g>
<g>
</g>
<g>
</g>
<g>
</g>
<g>
</g>
<g>
</g>
<g>
</g>
<g>
</g>
<g>
</g>
<g>
</g>
<g>
</g>
<g>
</g>
<g>
</g>
</svg>
