<?xml version="1.0" encoding="iso-8859-1"?>
<!-- Generator: Adobe Illustrator 18.0.0, SVG Export Plug-In . SVG Version: 6.00 Build 0)  -->
<!DOCTYPE svg PUBLIC "-//W3C//DTD SVG 1.1//EN" "http://www.w3.org/Graphics/SVG/1.1/DTD/svg11.dtd">
<svg version="1.1" id="Capa_1" xmlns="http://www.w3.org/2000/svg" xmlns:xlink="http://www.w3.org/1999/xlink" x="0px" y="0px"
	 viewBox="0 0 455.332 455.332" style="enable-background:new 0 0 455.332 455.332;" xml:space="preserve">
<g id="XMLID_1457_">
	<path id="XMLID_1458_" d="M288.731,211.102c8.526-3.293,28.009-8.019,53.615,3.226c5.691,2.499,12.328-0.089,14.827-5.777
		c2.499-5.689-0.088-12.327-5.777-14.826c-26.134-11.478-47.945-9.886-62.009-6.32c2.568-91.792,4.301-120.026,26.163-147.965
		c-1.539,20.169,12.084,38.91,32.404,43.192c2.838,0.598,5.667,0.885,8.459,0.885c18.957,0,36.028-13.262,40.089-32.534
		c4.398-20.874-8.014-41.445-28.021-47.603c-53.782-13.012-94.85,12.104-122.815,65.585
		c-29.641,56.688-27.889,130.107-29.501,183.646c-2.655,88.347-41.389,142.451-76.564,166.121
		c2.462-20.804-11.354-40.485-32.241-44.887c-22.166-4.669-43.879,9.485-48.549,31.649c-4.82,22.87,10.786,48.067,39.199,49.726
		c46.138,1.041,81.822-4.922,115.215-31.187c47.084-37.033,72.315-102.533,74.99-194.682
		C288.398,223.036,288.569,216.974,288.731,211.102z M338.323,38.723c2.105-9.991,11.897-16.376,21.889-14.27
		c1.58,0.333,5.164,1.264,7.529,3.52c5.386,4.209,8.244,11.243,6.742,18.371c-2.102,9.969-11.919,16.37-21.889,14.27
		C342.624,58.513,336.222,48.692,338.323,38.723z M116.99,417.755c-2.101,9.969-11.92,16.373-21.891,14.27
		c-9.969-2.101-16.371-11.921-14.27-21.89c2.094-9.941,11.843-16.386,21.89-14.27C112.689,397.966,119.091,407.786,116.99,417.755z
		 M169.869,423.472c46.093-42.248,66.889-106.945,68.789-170.184c1.546-51.534-0.062-122.237,26.949-173.895
		c5.153-9.856,10.444-18.525,15.857-26.012C245.914,141.704,308.172,366.745,169.869,423.472z"/>
</g>
<g>
</g>
<g>
</g>
<g>
</g>
<g>
</g>
<g>
</g>
<g>
</g>
<g>
</g>
<g>
</g>
<g>
</g>
<g>
</g>
<g>
</g>
<g>
</g>
<g>
</g>
<g>
</g>
<g>
</g>
</svg>
