<?xml version="1.0" encoding="UTF-8" standalone="no"?>
<svg
   xmlns:dc="http://purl.org/dc/elements/1.1/"
   xmlns:cc="http://creativecommons.org/ns#"
   xmlns:rdf="http://www.w3.org/1999/02/22-rdf-syntax-ns#"
   xmlns:svg="http://www.w3.org/2000/svg"
   xmlns="http://www.w3.org/2000/svg"
   id="svg2"
   viewBox="0 0 2.1839998 1.0559999"
   height="1.8557073mm"
   width="3.83794mm"
   version="1.2">
  <title
     id="title3380">forteMusic</title>
  <metadata
     id="metadata52">
    <rdf:RDF>
      <cc:Work
         rdf:about="">
        <dc:format>image/svg+xml</dc:format>
        <dc:type
           rdf:resource="http://purl.org/dc/dcmitype/StillImage" />
        <dc:title>forteMusic</dc:title>
        <cc:license
           rdf:resource="http://creativecommons.org/publicdomain/mark/1.0/" />
      </cc:Work>
      <cc:License
         rdf:about="http://creativecommons.org/publicdomain/mark/1.0/">
        <cc:permits
           rdf:resource="http://creativecommons.org/ns#Reproduction" />
        <cc:permits
           rdf:resource="http://creativecommons.org/ns#Distribution" />
        <cc:permits
           rdf:resource="http://creativecommons.org/ns#DerivativeWorks" />
      </cc:License>
    </rdf:RDF>
  </metadata>
  <defs
     id="defs50" />
  <path
     style="fill:currentColor"
     id="path26"
     d="M 1.648,-3.8290034e-8 C 1.944,-3.8290034e-8 2.184,0.23199996 2.184,0.52799996 2.184,0.80799996 1.996,1.056 1.728,1.056 c -0.14,0 -0.272,-0.084 -0.272,-0.21200004 0,-0.14 0.112,-0.212 0.216,-0.212 0.08,0 0.156,0.04 0.192,0.124 0.108,-0.016 0.2,-0.104 0.2,-0.228 0,-0.124 -0.112,-0.216 -0.244,-0.216 -0.256,0 -0.44,0.212 -0.628,0.388 C 1.004,0.87599996 0.796,1.056 0.536,1.056 0.24,1.056 0,0.82399996 0,0.52799996 0,0.24799996 0.188,-3.8290034e-8 0.456,-3.8290034e-8 c 0.14,0 0.272,0.08399999829003 0.272,0.211999998290034 0,0.14 -0.112,0.212 -0.216,0.212 -0.08,0 -0.156,-0.04 -0.192,-0.124 -0.108,0.016 -0.2,0.104 -0.2,0.228 0,0.124 0.112,0.216 0.244,0.216 0.256,0 0.44,-0.212 0.628,-0.388 C 1.18,0.17999996 1.388,-3.8290034e-8 1.648,-3.8290034e-8 Z" />
</svg>
