<?xml version="1.0" encoding="iso-8859-1"?>
<!-- Generator: Adobe Illustrator 18.0.0, SVG Export Plug-In . SVG Version: 6.00 Build 0)  -->
<!DOCTYPE svg PUBLIC "-//W3C//DTD SVG 1.1//EN" "http://www.w3.org/Graphics/SVG/1.1/DTD/svg11.dtd">
<svg version="1.1" id="Capa_1" xmlns="http://www.w3.org/2000/svg" xmlns:xlink="http://www.w3.org/1999/xlink" x="0px" y="0px"
	 viewBox="0 0 439.001 439.001" style="enable-background:new 0 0 439.001 439.001;" xml:space="preserve">
<g id="XMLID_998_">
	<path id="XMLID_1001_" d="M267.466,311.8c-0.023,0-0.043,0-0.067,0c-7.947,0-15.492,2.147-22.012,6.007V10c0-5.522-4.477-10-10-10
		s-10,4.478-10,10v419c0,8.69,10.333,13.2,16.719,7.391c1.587-0.816,27.627-20.187,40.138-31.118
		c14.695-12.84,28.297-27.813,28.331-50.235C310.61,331.231,291.272,311.835,267.466,311.8z M269.085,390.212
		c-6.383,5.578-15.868,12.971-23.697,18.925v-62.545c0,0,0.766-2.061,1.113-2.758c3.949-7.951,12.036-12.034,20.9-12.034
		c0.012,0,0.024,0,0.036,0c12.778,0.02,23.158,10.43,23.14,23.208C290.555,368.703,282.338,378.632,269.085,390.212z"/>
	<path id="XMLID_1004_" d="M203.613,0c-5.523,0-10,4.478-10,10v307.806c-6.519-3.859-14.064-6.006-22.012-6.006
		c-0.022,0-0.044,0-0.067,0c-23.805,0.035-43.144,19.432-43.109,43.237c0.034,22.423,13.636,37.396,28.331,50.235
		c11.874,10.375,38.262,30.155,40.137,31.118c6.377,5.802,16.72,1.312,16.72-7.39V10C213.613,4.478,209.136,0,203.613,0z
		 M148.425,355.008c-0.019-12.778,10.361-23.188,23.14-23.208c0.012,0,0.023,0,0.036,0c8.863,0,17.034,4.166,20.983,12.117
		c0.346,0.697,1.029,2.675,1.029,2.675v62.545c-7.828-5.954-17.314-13.347-23.697-18.925
		C156.664,378.632,148.446,368.703,148.425,355.008z"/>
</g>
<g>
</g>
<g>
</g>
<g>
</g>
<g>
</g>
<g>
</g>
<g>
</g>
<g>
</g>
<g>
</g>
<g>
</g>
<g>
</g>
<g>
</g>
<g>
</g>
<g>
</g>
<g>
</g>
<g>
</g>
</svg>
