<?xml version="1.0" encoding="iso-8859-1"?>
<!-- Generator: Adobe Illustrator 18.0.0, SVG Export Plug-In . SVG Version: 6.00 Build 0)  -->
<!DOCTYPE svg PUBLIC "-//W3C//DTD SVG 1.1//EN" "http://www.w3.org/Graphics/SVG/1.1/DTD/svg11.dtd">
<svg version="1.1" id="Capa_1" xmlns="http://www.w3.org/2000/svg" xmlns:xlink="http://www.w3.org/1999/xlink" x="0px" y="0px"
	 viewBox="0 0 461 461" style="enable-background:new 0 0 461 461;" xml:space="preserve">
<path id="XMLID_1394_" d="M338.686,1.054c-4.321-2.188-9.592-0.878-12.385,3.078c-8.35,11.827-29.659,36.811-53.311,50.648
	c0.006-0.249,0.019-0.497,0.019-0.747c0-16.774-13.646-30.42-30.419-30.42S212.17,37.26,212.17,54.033
	c0,16.773,13.646,30.419,30.419,30.419c2.472,0,4.874-0.304,7.176-0.863c23.317-4.756,43.816-17.308,60.328-32.324l-8.396,25.092
	c-5.543,7.369-26.838,34.337-51.917,48.942c0.01-0.312,0.024-0.623,0.024-0.937c0-16.773-13.646-30.419-30.419-30.419
	s-30.419,13.646-30.419,30.419c0,16.774,13.646,30.42,30.419,30.42c2.488,0,4.905-0.307,7.221-0.873
	c24.31-5.076,46.477-18.651,59.814-31.895l-7.858,23.483c-3.104,4.247-25.81,34.522-52.954,50.329
	c0.009-0.308,0.024-0.615,0.024-0.926c0-16.774-13.647-30.42-30.42-30.42s-30.419,13.646-30.419,30.42
	c0,16.773,13.646,30.419,30.419,30.419c2.463,0,4.855-0.302,7.15-0.857c23.221-4.962,44.134-17.512,60.701-32.646l-9.376,28.02
	c-7.563,9.538-27.225,32.586-50.012,45.652c0.012-0.346,0.026-0.691,0.026-1.038c0-16.774-13.646-29.444-30.419-29.444
	s-30.419,12.67-30.419,29.444c0,16.773,13.646,31.395,30.419,31.395c2.468,0,4.866-0.324,7.166-0.918
	c22.634-4.427,42.066-17.143,58.727-31.724l-9.261,27.678c-5.166,6.411-26.71,31.899-52.149,45.836
	c0.019-0.441,0.034-0.884,0.034-1.33c0-16.774-13.647-30.42-30.42-30.42s-30.419,13.646-30.419,30.42
	c0,16.773,13.646,30.419,30.419,30.419c2.355,0,4.644-0.278,6.847-0.787c23.023-3.353,42.523-18.737,61.006-30.259l-37.937,113.377
	c-1.71,5.113,1.048,10.644,6.16,12.355c5.117,1.711,10.645-1.051,12.355-6.16L343.533,12.86
	C345.07,8.267,343.007,3.242,338.686,1.054z M231.694,54.033c0-6.008,4.888-10.896,10.895-10.896s10.895,4.888,10.895,10.896
	c0,6.008-4.888,10.895-10.895,10.895S231.694,60.041,231.694,54.033z M219.385,113.467c6.008,0,10.895,4.888,10.895,10.895
	s-4.888,10.896-10.895,10.896s-10.895-4.888-10.895-10.896S213.377,113.467,219.385,113.467z M195.213,184.003
	c6.009,0,10.896,4.888,10.896,10.896s-4.888,10.895-10.896,10.895c-6.008,0-10.895-4.888-10.895-10.895
	S189.205,184.003,195.213,184.003z M173.284,253.553c6.008,0,10.895,4.888,10.895,10.896c0,6.008-4.888,10.895-10.895,10.895
	s-10.895-4.888-10.895-10.895C162.388,258.441,167.276,253.553,173.284,253.553z M147.38,324.491
	c6.009,0,10.896,4.888,10.896,10.896s-4.888,10.895-10.896,10.895c-6.008,0-10.895-4.888-10.895-10.895
	S141.372,324.491,147.38,324.491z"/>
<g>
</g>
<g>
</g>
<g>
</g>
<g>
</g>
<g>
</g>
<g>
</g>
<g>
</g>
<g>
</g>
<g>
</g>
<g>
</g>
<g>
</g>
<g>
</g>
<g>
</g>
<g>
</g>
<g>
</g>
</svg>
