<?xml version="1.0" encoding="UTF-8" standalone="no"?>
<svg
   xmlns:dc="http://purl.org/dc/elements/1.1/"
   xmlns:cc="http://creativecommons.org/ns#"
   xmlns:rdf="http://www.w3.org/1999/02/22-rdf-syntax-ns#"
   xmlns:svg="http://www.w3.org/2000/svg"
   xmlns="http://www.w3.org/2000/svg"
   version="1.2"
   width="1.7572987mm"
   height="1.9330286mm"
   viewBox="0 0 1 1.1"
   id="svg2">
  <title
     id="title3382">bassClef</title>
  <metadata
     id="metadata54">
    <rdf:RDF>
      <cc:Work
         rdf:about="">
        <dc:format>image/svg+xml</dc:format>
        <dc:type
           rdf:resource="http://purl.org/dc/dcmitype/StillImage" />
        <dc:title>bassClef</dc:title>
        <cc:license
           rdf:resource="http://creativecommons.org/publicdomain/mark/1.0/" />
      </cc:Work>
      <cc:License
         rdf:about="http://creativecommons.org/publicdomain/mark/1.0/">
        <cc:permits
           rdf:resource="http://creativecommons.org/ns#Reproduction" />
        <cc:permits
           rdf:resource="http://creativecommons.org/ns#Distribution" />
        <cc:permits
           rdf:resource="http://creativecommons.org/ns#DerivativeWorks" />
      </cc:License>
    </rdf:RDF>
  </metadata>
  <defs
     id="defs52" />
  <path
     d="M 0.052,1.1 C 0.024,1.1 0,1.08 0,1.052 0,1.044 0,1.036 0.004,1.028 l 0.452,-1 C 0.464,0.012 0.48,0 0.5,0 0.52,0 0.536,0.012 0.544,0.028 l 0.452,1 C 1,1.036 1,1.044 1,1.052 1,1.08 0.976,1.1 0.948,1.1 l -0.264,0 C 0.664,1.1 0.644,1.088 0.636,1.072 l -0.272,-0.6 -0.268,0.6 C 0.088,1.088 0.072,1.1 0.052,1.1 Z"
     id="path38"
     style="fill:currentColor" />
</svg>
