<?xml version="1.0" encoding="iso-8859-1"?>
<!-- Generator: Adobe Illustrator 18.0.0, SVG Export Plug-In . SVG Version: 6.00 Build 0)  -->
<!DOCTYPE svg PUBLIC "-//W3C//DTD SVG 1.1//EN" "http://www.w3.org/Graphics/SVG/1.1/DTD/svg11.dtd">
<svg version="1.1" id="Capa_1" xmlns="http://www.w3.org/2000/svg" xmlns:xlink="http://www.w3.org/1999/xlink" x="0px" y="0px"
	 viewBox="0 0 457.446 457.446" style="enable-background:new 0 0 457.446 457.446;" xml:space="preserve">
<g id="XMLID_27_">
	<path id="XMLID_29_" d="M372.644,444.507L238.282,7.063C236.993,2.865,233.115,0,228.723,0s-8.27,2.865-9.559,7.063
		c-1.512,4.923-131.671,428.682-134.362,437.443c-1.622,5.279,1.344,10.874,6.623,12.496c5.277,1.616,10.874-1.344,12.495-6.623
		l94.458-307.527l94.458,307.527c1.321,4.301,5.279,7.066,9.556,7.066c0.972,0,1.961-0.144,2.939-0.443
		c5.279-1.622,8.245-7.216,6.623-12.496L208.839,108.795l19.884-64.737L353.526,450.38c1.321,4.301,5.279,7.066,9.556,7.066
		c0.972,0,1.961-0.144,2.939-0.443C371.3,455.381,374.266,449.786,372.644,444.507z"/>
	<path id="XMLID_1337_" d="M198.424,367.977c-24.666,0-44.733,20.067-44.733,44.733s20.067,44.733,44.733,44.733
		s44.733-20.067,44.733-44.733S223.09,367.977,198.424,367.977z M198.424,437.443c-13.638,0-24.733-11.096-24.733-24.733
		s11.095-24.733,24.733-24.733s24.733,11.096,24.733,24.733S212.062,437.443,198.424,437.443z"/>
</g>
<g>
</g>
<g>
</g>
<g>
</g>
<g>
</g>
<g>
</g>
<g>
</g>
<g>
</g>
<g>
</g>
<g>
</g>
<g>
</g>
<g>
</g>
<g>
</g>
<g>
</g>
<g>
</g>
<g>
</g>
</svg>
