<?xml version="1.0" encoding="iso-8859-1"?>
<!-- Generator: Adobe Illustrator 18.0.0, SVG Export Plug-In . SVG Version: 6.00 Build 0)  -->
<!DOCTYPE svg PUBLIC "-//W3C//DTD SVG 1.1//EN" "http://www.w3.org/Graphics/SVG/1.1/DTD/svg11.dtd">
<svg version="1.1" id="Capa_1" xmlns="http://www.w3.org/2000/svg" xmlns:xlink="http://www.w3.org/1999/xlink" x="0px" y="0px"
	 viewBox="0 0 445.009 445.009" style="enable-background:new 0 0 445.009 445.009;" xml:space="preserve">
<path id="XMLID_1424_" d="M430.566,60.603L160.506,0.245c-6.237-1.399-12.181,3.358-12.181,9.759V289.52
	c-16.728-13.42-39.404-19.335-60.851-19.335c-43.735,0-80.85,24.431-80.85,57.233c0,32.817,37.137,57.233,80.85,57.233
	c43.718,0,80.851-24.42,80.851-57.233V22.486l250.059,55.888v271.504c-16.732-13.422-39.409-19.335-60.85-19.335
	c-43.735,0-80.85,24.431-80.85,57.233c0,32.813,37.132,57.233,80.85,57.233c43.735,0,80.85-24.431,80.85-57.233V70.362
	C438.384,65.679,435.135,61.623,430.566,60.603z M87.475,364.652c-32.984,0-60.85-17.051-60.85-37.233s27.866-37.233,60.85-37.233
	s60.851,17.051,60.851,37.233S120.459,364.652,87.475,364.652z M357.534,425.009c-32.984,0-60.85-17.051-60.85-37.233
	s27.866-37.233,60.85-37.233s60.85,17.051,60.85,37.233S390.519,425.009,357.534,425.009z"/>
<g>
</g>
<g>
</g>
<g>
</g>
<g>
</g>
<g>
</g>
<g>
</g>
<g>
</g>
<g>
</g>
<g>
</g>
<g>
</g>
<g>
</g>
<g>
</g>
<g>
</g>
<g>
</g>
<g>
</g>
</svg>
