<?xml version="1.0" encoding="iso-8859-1"?>
<!-- Generator: Adobe Illustrator 18.0.0, SVG Export Plug-In . SVG Version: 6.00 Build 0)  -->
<!DOCTYPE svg PUBLIC "-//W3C//DTD SVG 1.1//EN" "http://www.w3.org/Graphics/SVG/1.1/DTD/svg11.dtd">
<svg version="1.1" id="Capa_1" xmlns="http://www.w3.org/2000/svg" xmlns:xlink="http://www.w3.org/1999/xlink" x="0px" y="0px"
	 viewBox="0 0 450.269 450.269" style="enable-background:new 0 0 450.269 450.269;" xml:space="preserve">
<path id="XMLID_1373_" d="M225.134,326.664c-24.135,0-49.549,6.888-67.703,22.299v-222.21
	c25.895,41.948,109.154,78.336,68.792,158.779c-2.477,4.937-0.482,10.945,4.454,13.423c4.94,2.477,10.947,0.48,13.423-4.454
	c15.315-30.525,17.104-58.844,5.445-86.42c0.003-0.008,0.008-0.015,0.012-0.024c29.614-73.296-20.423-114.582-53.533-141.901
	c-7.668-6.327-23.552-17.909-38.592-49.589V10c0-5.522-4.477-10-10-10s-10,4.478-10,10c0,1.006,0.129,381.703,0.807,386.898
	c6.142,32.794,45.8,53.37,86.896,53.37c47.426,0,87.703-26.412,87.703-61.802C312.837,353.082,272.57,326.664,225.134,326.664z
	 M183.295,81.582c29.014,23.939,64.459,53.186,52.867,102.919c-16.779-23.547-39.996-41.839-53.549-57.186
	c-24.758-28.033-25.18-71.402-25.182-71.837v-0.126C167.659,69.136,174.935,74.683,183.295,81.582z M225.134,430.269
	c-36.699,0-67.703-19.143-67.703-41.802s31.004-41.803,67.703-41.803c36.699,0,67.703,19.144,67.703,41.803
	S261.833,430.269,225.134,430.269z"/>
<g>
</g>
<g>
</g>
<g>
</g>
<g>
</g>
<g>
</g>
<g>
</g>
<g>
</g>
<g>
</g>
<g>
</g>
<g>
</g>
<g>
</g>
<g>
</g>
<g>
</g>
<g>
</g>
<g>
</g>
</svg>
