<?xml version="1.0" encoding="iso-8859-1"?>
<!-- Generator: Adobe Illustrator 18.0.0, SVG Export Plug-In . SVG Version: 6.00 Build 0)  -->
<!DOCTYPE svg PUBLIC "-//W3C//DTD SVG 1.1//EN" "http://www.w3.org/Graphics/SVG/1.1/DTD/svg11.dtd">
<svg version="1.1" id="Capa_1" xmlns="http://www.w3.org/2000/svg" xmlns:xlink="http://www.w3.org/1999/xlink" x="0px" y="0px"
	 viewBox="0 0 444.606 444.606" style="enable-background:new 0 0 444.606 444.606;" xml:space="preserve">
<path id="XMLID_1348_" d="M358.851,220.284c0.035-0.08,0.082-0.15,0.115-0.232c33.39-82.642-28.905-126.465-64.414-156.396
	c-17.7-14.917-30.207-39.709-33.444-46.545V10c0-5.523-4.478-10-10-10c-5.523,0-10,4.477-10,10c0,5.618,0,324.383,0,328.99
	c-19.171-16.859-46.675-24.384-72.5-24.384c-50.053,0-92.5,27.825-92.5,65c0,37.17,42.439,65,92.5,65c50.069,0,92.5-27.835,92.5-65
	V208.748c18.312,30.96,59.364,54.208,77.668,92.363c1.508,5.205,19.501,32.947-3.46,78.708c-2.477,4.936-0.482,10.946,4.454,13.422
	c4.937,2.477,10.946,0.482,13.423-4.454c16.063-32.014,18.043-61.721,6.019-90.635C369.624,270.896,369.515,245.306,358.851,220.284
	z M168.608,424.606c-39.299,0-72.5-20.607-72.5-45s33.201-45,72.5-45c39.299,0,72.5,20.607,72.5,45S207.907,424.606,168.608,424.606
	z M289.577,85.523c31.206,25.748,69.376,57.256,56.018,111.215c-17.846-25.499-42.94-45.177-57.596-61.77
	c-18.052-20.44-26.891-53.511-26.891-78.701C272.479,71.957,280.69,78.193,289.577,85.523z M287.999,211.968
	c-18.227-20.639-26.891-53.348-26.891-80.22c24.267,41.028,96.79,74.871,84.388,141.852
	C327.663,248.176,302.606,228.507,287.999,211.968z"/>
<g>
</g>
<g>
</g>
<g>
</g>
<g>
</g>
<g>
</g>
<g>
</g>
<g>
</g>
<g>
</g>
<g>
</g>
<g>
</g>
<g>
</g>
<g>
</g>
<g>
</g>
<g>
</g>
<g>
</g>
</svg>
